TITLE:
 
The Frontier Boys 2012 DVDRiP AC3 XViD - INSPiRAL
 
IMDB:
  
http://www.imdb.com/title/tt1613056/
 
 
SOURCES:
 
VIDEO - THE_FRONTIER_BOYS.ISO HK INC THANKS
AUDIO - THE_FRONTIER_BOYS.ISO HK INC THANKS
SUBS  - None Add
 
STATS:
 
Video
ID                                       : 0
Format                                   : MPEG-4 Visual
Format profile                           : Advanced Simple@L5
Format settings, BVOP                    : 2
Format settings, QPel                    : No
Format settings, GMC                     : No warppoints
Format settings, Matrix                  : Default (MPEG)
Muxing mode                              : Packed bitstream
Codec ID                                 : XVID
Codec ID/Hint                            : XviD
Duration                                 : 1h 52mn
Bit rate                                 : 1 279 Kbps
Width                                    : 720 pixels
Height                                   : 304 pixels
Display aspect ratio                     : 2.35:1
Frame rate                               : 23.976 fps
Color space                              : YUV
Chroma subsampling                       : 4:2:0
Bit depth                                : 8 bits
Scan type                                : Progressive
Compression mode                         : Lossy
Bits/(Pixel*Frame)                       : 0.244
Stream size                              : 1.00 GiB (74%)
Writing library                          : XviD 64
 
Audio
ID                                       : 1
Format                                   : AC-3
Format/Info                              : Audio Coding 3
Mode extension                           : CM (complete main)
Codec ID                                 : 2000
Duration                                 : 1h 52mn
Bit rate mode                            : Constant
Bit rate                                 : 448 Kbps
Channel(s)                               : 6 channels
Channel positions                        : Front: L C R, Side: L R, LFE
Sampling rate                            : 48.0 KHz
Bit depth                                : 16 bits
Compression mode                         : Lossy
Stream size                              : 359 MiB (26%)
Alignment                                : Aligned on interleaves
Interleave, duration                     : 42 ms (1.00 video frame)
Interleave, preload duration             : 512 ms
 
 
 
NOTES:
 
Simple right from the iso file,but done the right way ....Audio just remuxed to our rip.
 
 
SCREENS:
 
[IMG]http://i.imgur.com/04paN.png[/IMG]
[IMG]http://i.imgur.com/zOcIG.png[/IMG]
[IMG]http://i.imgur.com/wcHvP.png[/IMG]
[IMG]http://i.imgur.com/e11ek.png[/IMG]
 
 
GREETZ:
 
Past,Present and Future